<svg width="140" height="140" viewBox="0 0 140 140" fill="none" xmlns="http://www.w3.org/2000/svg">
<path d="M46.6667 116.667H93.3333V29.1666H46.6667L46.6667 116.667ZM52.5 17.5C52.5 15.9529 53.1146 14.4692 54.2085 13.3752C55.3025 12.2812 56.7862 11.6666 58.3333 11.6666H81.6667C83.2138 11.6666 84.6975 12.2812 85.7915 13.3752C86.8854 14.4692 87.5 15.9529 87.5 17.5H93.3333C96.4275 17.5 99.395 18.7291 101.583 20.9171C103.771 23.105 105 26.0725 105 29.1666V116.667C105 119.761 103.771 122.728 101.583 124.916C99.395 127.104 96.4275 128.333 93.3333 128.333H46.6667C43.5725 128.333 40.605 127.104 38.4171 124.916C36.2292 122.728 35 119.761 35 116.667L35 29.1666C35 26.0725 36.2292 23.105 38.4171 20.9171C40.605 18.7291 43.5725 17.5 46.6667 17.5H52.5ZM72.0883 47.9033C73.5404 48.4333 74.7228 49.5179 75.3758 50.919C76.0287 52.3201 76.0989 53.923 75.5708 55.3758L67.5908 77.3092C67.061 78.7634 65.9751 79.9476 64.5721 80.6013C63.1691 81.2549 61.5639 81.3245 60.1096 80.7946C58.6553 80.2647 57.4711 79.1788 56.8175 77.7758C56.1638 76.3728 56.0943 74.7676 56.6242 73.3133L64.61 51.3858C65.1399 49.9323 66.2255 48.7489 67.6279 48.0958C69.0304 47.4427 70.6348 47.3735 72.0883 47.9033ZM81.6025 69.825C82.3227 70.0868 82.9843 70.4879 83.5494 71.0055C84.1145 71.5231 84.5722 72.1469 84.8961 72.8414C85.22 73.5359 85.404 74.2874 85.4374 75.053C85.4708 75.8186 85.353 76.5833 85.0908 77.3033L77.1167 99.2308C76.5876 100.685 75.5024 101.87 74.1 102.524C72.6975 103.178 71.0926 103.248 69.6383 102.719C68.1841 102.19 66.9995 101.105 66.3454 99.7024C65.6912 98.3 65.6209 96.6951 66.15 95.2408L74.1358 73.3133C74.6646 71.8602 75.7488 70.6765 77.15 70.0223C78.5512 69.3682 80.1548 69.2972 81.6083 69.825H81.6025ZM62.1075 69.475H79.6075C81.1546 69.475 82.6383 70.0896 83.7323 71.1835C84.8263 72.2775 85.4408 73.7612 85.4408 75.3083C85.4408 76.8554 84.8263 78.3391 83.7323 79.4331C82.6383 80.5271 81.1546 81.1417 79.6075 81.1417H62.1075C60.5604 81.1417 59.0767 80.5271 57.9827 79.4331C56.8887 78.3391 56.2742 76.8554 56.2742 75.3083C56.2742 73.7612 56.8887 72.2775 57.9827 71.1835C59.0767 70.0896 60.5604 69.475 62.1075 69.475Z" fill="#4D8B55"/>
</svg>
