<svg width="120" height="140" viewBox="0 0 120 140" fill="none" xmlns="http://www.w3.org/2000/svg">
<path d="M59.0005 100.16L55.7605 131.03C55.6227 132.336 55.2289 133.602 54.6017 134.756C53.9745 135.91 53.1262 136.929 52.1053 137.755C51.0843 138.581 49.9106 139.197 48.6513 139.57C47.3919 139.942 46.0715 140.063 44.7655 139.925C43.4595 139.787 42.1935 139.393 41.0397 138.766C39.8859 138.139 38.8669 137.291 38.0409 136.27C37.2149 135.249 36.5981 134.075 36.2257 132.816C35.8533 131.556 35.7326 130.236 35.8705 128.93L43.1005 60.1H10.0005C7.34439 60.1 4.79704 59.0449 2.91886 57.1667C1.04068 55.2885 -0.0144653 52.7411 -0.0144653 50.085C-0.0144653 47.4289 1.04068 44.8815 2.91886 43.0033C4.79704 41.1251 7.34439 40.07 10.0005 40.07H110.001C112.657 40.07 115.204 41.1251 117.082 43.0033C118.96 44.8815 120.016 47.4289 120.016 50.085C120.016 52.7411 118.96 55.2885 117.082 57.1667C115.204 59.0449 112.657 60.1 110.001 60.1H76.9005L84.1305 128.95C84.3139 130.279 84.2282 131.632 83.8784 132.927C83.5287 134.223 82.922 135.435 82.0945 136.491C81.2669 137.548 80.2355 138.427 79.0614 139.076C77.8873 139.726 76.5946 140.133 75.26 140.273C73.9255 140.414 72.5764 140.284 71.2929 139.892C70.0095 139.501 68.8179 138.855 67.7889 137.994C66.76 137.132 65.9148 136.073 65.3035 134.878C64.6922 133.684 64.3273 132.378 64.2305 131.04L61.0005 100.16H59.0005ZM60.0005 40.06C48.9505 40.06 40.0005 31.09 40.0005 20.03C40.0005 8.97 48.9505 0 60.0005 0C71.0505 0 80.0005 8.97 80.0005 20.03C80.0032 25.3379 77.8979 30.4296 74.1474 34.1857C70.397 37.9417 65.3084 40.0547 60.0005 40.06Z" fill="#4D8B55"/>
</svg>
