<svg width="140" height="140" viewBox="0 0 140 140" fill="none" xmlns="http://www.w3.org/2000/svg">
<path d="M70 17.5C41.0506 17.5 17.5 41.0506 17.5 70C17.5 98.9494 41.0506 122.5 70 122.5C98.9494 122.5 122.5 98.9494 122.5 70C122.5 41.0506 98.9494 17.5 70 17.5ZM70 26.25C94.2156 26.25 113.75 45.7844 113.75 70C113.75 94.2156 94.2156 113.75 70 113.75C45.7844 113.75 26.25 94.2156 26.25 70C26.25 45.7844 45.7844 26.25 70 26.25ZM50.3125 52.5C48.572 52.5 46.9028 53.1914 45.6721 54.4221C44.4414 55.6528 43.75 57.322 43.75 59.0625C43.75 60.803 44.4414 62.4722 45.6721 63.7029C46.9028 64.9336 48.572 65.625 50.3125 65.625C52.053 65.625 53.7222 64.9336 54.9529 63.7029C56.1836 62.4722 56.875 60.803 56.875 59.0625C56.875 57.322 56.1836 55.6528 54.9529 54.4221C53.7222 53.1914 52.053 52.5 50.3125 52.5ZM78.75 56.875V65.625H100.625V56.875H78.75ZM91.7394 74.5106C91.7394 81.8781 88.7819 86.9881 84.49 90.6456C80.2025 94.3031 74.5281 96.25 70 96.25C60.7206 96.25 54.4119 92.4875 49.49 87.6356L43.3388 93.9312C49.4419 99.9206 58.275 105 70 105C76.8031 105 84.2712 102.436 90.2344 97.3438C96.1975 92.2513 100.489 84.3938 100.489 74.5106H91.7394Z" fill="#4D8B55"/>
</svg>
