<svg width="140" height="140" viewBox="0 0 140 140" fill="none" xmlns="http://www.w3.org/2000/svg">
<path d="M37.1875 21.875C30.8079 21.8819 24.6915 24.4193 20.1804 28.9304C15.6693 33.4415 13.1319 39.5579 13.125 45.9375V94.0625C13.125 107.327 23.9181 118.125 37.1875 118.125C50.4569 118.125 61.25 107.327 61.25 94.0625V71.7675L87.7406 108.22C89.9747 111.298 92.907 113.802 96.2966 115.527C99.6863 117.252 103.437 118.148 107.24 118.143C112.312 118.144 117.253 116.537 121.354 113.553V113.544C126.509 109.788 129.964 104.14 130.961 97.8391C131.957 91.5385 130.414 85.0999 126.669 79.9356L98.385 40.9981C94.6299 35.842 88.9825 32.3865 82.6823 31.3899C76.382 30.3933 69.9438 31.9371 64.7806 35.6825C63.1626 36.8684 61.7001 38.253 60.4275 39.8037C57.7063 29.505 48.3394 21.875 37.1875 21.875ZM37.1875 30.625C45.6312 30.625 52.5 37.4938 52.5 45.9375V65.625H21.875V45.9375C21.875 37.4938 28.7438 30.625 37.1875 30.625ZM78.9031 39.8344C81.3226 39.8309 83.7085 40.4009 85.8651 41.4975C88.0218 42.5941 89.888 44.1861 91.3106 46.1431L102.882 62.0638L78.1113 80.0756L66.5306 64.1506C64.1468 60.8628 63.165 56.7634 63.8007 52.7524C64.4364 48.7414 66.6376 45.1465 69.9213 42.7569C72.6338 40.7881 75.7837 39.8344 78.9031 39.8344ZM108.023 69.1381L119.604 85.0719C121.984 88.3614 122.963 92.4602 122.326 96.4702C121.69 100.48 119.49 104.074 116.209 106.466C112.922 108.848 108.825 109.83 104.816 109.195C100.807 108.56 97.2132 106.361 94.8237 103.079L83.2519 87.15L108.023 69.1381ZM21.875 74.375H52.5V94.0625C52.5 102.506 45.6312 109.375 37.1875 109.375C28.7438 109.375 21.875 102.506 21.875 94.0625V74.375Z" fill="#4D8B55"/>
</svg>
