<svg width="140" height="140" viewBox="0 0 140 140" fill="none" xmlns="http://www.w3.org/2000/svg">
<path d="M21.875 21.875C33.3113 61.145 32.2087 79.5419 52.045 94.9069C69.4137 108.146 86.7825 104.694 96.285 103.281L111.116 118.125H119.866L102.454 100.713C102.344 90.1819 126.919 21.875 21.875 21.875ZM35.3675 30.6337C35.9581 30.6819 37.3362 31.1631 39.9481 32.3662C57.4437 40.46 63.6081 52.4563 70.2713 64.7413C75.0662 73.5919 83.4794 87.0669 89.4075 91.4069C95.34 95.7075 101.815 98.8838 88.1475 93.1481C74.4363 87.4125 64.4481 71.1331 57.8244 58.8044C52.7319 49.3456 48.3612 40.635 38.8544 34.2475C38.8544 34.2475 33.5912 30.485 35.3675 30.6337Z" fill="#4D8B55"/>
</svg>
