<svg width="116" height="109" viewBox="0 0 116 109" fill="none" xmlns="http://www.w3.org/2000/svg">
<path d="M0 14C0 10.287 1.475 6.72601 4.1005 4.1005C6.72601 1.475 10.287 0 14 0H98C101.713 0 105.274 1.475 107.899 4.1005C110.525 6.72601 112 10.287 112 14V36.022C109.89 34.1331 107.536 32.5367 105 31.276V14C105 12.1435 104.263 10.363 102.95 9.05025C101.637 7.7375 99.8565 7 98 7H14C12.1435 7 10.363 7.7375 9.05025 9.05025C7.7375 10.363 7 12.1435 7 14V70C7 71.8565 7.7375 73.637 9.05025 74.9497C10.363 76.2625 12.1435 77 14 77H64.806C65.338 77.791 65.905 78.561 66.5 79.303V84H14C10.287 84 6.72601 82.525 4.1005 79.8995C1.475 77.274 0 73.713 0 70V14Z" fill="#4D8B55"/>
<path d="M115.5 59.5001C115.5 66.1781 112.833 72.2261 108.5 76.6501V105C108.5 105.65 108.319 106.287 107.977 106.84C107.636 107.393 107.147 107.84 106.565 108.131C105.984 108.421 105.333 108.544 104.686 108.486C104.038 108.428 103.42 108.19 102.9 107.8L93.1 100.45C92.4942 99.9957 91.7573 99.75 91 99.75C90.2427 99.75 89.5058 99.9957 88.9 100.45L79.1 107.8C78.58 108.19 77.9617 108.428 77.3143 108.486C76.667 108.544 76.0161 108.421 75.4347 108.131C74.8534 107.84 74.3644 107.393 74.0227 106.84C73.681 106.287 73.5 105.65 73.5 105V76.6501C70.6878 73.7798 68.6247 70.2619 67.4925 66.4064C66.3604 62.5509 66.1939 58.4761 67.0079 54.541C67.8218 50.606 69.5911 46.9316 72.1599 43.8416C74.7287 40.7515 78.0181 38.3408 81.7382 36.8217C85.4584 35.3027 89.495 34.722 93.4925 35.1308C97.49 35.5396 101.326 36.9253 104.661 39.1659C107.997 41.4065 110.73 44.4332 112.62 47.9792C114.51 51.5252 115.499 55.4817 115.5 59.5001ZM91 84.0001C87.241 84.0001 83.685 83.1601 80.5 81.6411V96.25L89.201 91.028C89.7446 90.7023 90.3663 90.5303 91 90.5303C91.6337 90.5303 92.2554 90.7023 92.799 91.028L101.5 96.25V81.6411C98.2192 83.199 94.6319 84.0049 91 84.0001ZM91 77.0001C95.6413 77.0001 100.092 75.1563 103.374 71.8744C106.656 68.5925 108.5 64.1413 108.5 59.5001C108.5 54.8588 106.656 50.4076 103.374 47.1257C100.092 43.8438 95.6413 42.0001 91 42.0001C86.3587 42.0001 81.9075 43.8438 78.6256 47.1257C75.3437 50.4076 73.5 54.8588 73.5 59.5001C73.5 64.1413 75.3437 68.5925 78.6256 71.8744C81.9075 75.1563 86.3587 77.0001 91 77.0001Z" fill="#4D8B55"/>
<path d="M21 24.5C21 23.5717 21.3687 22.6815 22.0251 22.0251C22.6815 21.3687 23.5717 21 24.5 21H87.5C88.4283 21 89.3185 21.3687 89.9749 22.0251C90.6313 22.6815 91 23.5717 91 24.5C91 25.4283 90.6313 26.3185 89.9749 26.9749C89.3185 27.6313 88.4283 28 87.5 28H24.5C23.5717 28 22.6815 27.6313 22.0251 26.9749C21.3687 26.3185 21 25.4283 21 24.5Z" fill="#4D8B55"/>
<path d="M24.5 56C23.5717 56 22.6815 56.3687 22.0251 57.0251C21.3687 57.6815 21 58.5717 21 59.5C21 60.4283 21.3687 61.3185 22.0251 61.9749C22.6815 62.6313 23.5717 63 24.5 63H52.5C53.4283 63 54.3185 62.6313 54.9749 61.9749C55.6313 61.3185 56 60.4283 56 59.5C56 58.5717 55.6313 57.6815 54.9749 57.0251C54.3185 56.3687 53.4283 56 52.5 56H24.5Z" fill="#4D8B55"/>
</svg>
