<svg width="25" height="25" viewBox="0 0 25 25" fill="none" xmlns="http://www.w3.org/2000/svg">
<g clip-path="url(#clip0)">
<path d="M24.6289 9.03649C24.2987 8.62233 23.8035 8.38473 23.27 8.38473H18.4553L15.8445 2.40656C15.6827 2.0359 15.2509 1.86652 14.8802 2.02848C14.5095 2.19035 14.3402 2.62213 14.5022 2.99284L16.8569 8.38478H8.14312L10.4979 2.99284C10.6597 2.62213 10.4905 2.1904 10.1198 2.02848C9.74912 1.86652 9.31734 2.03581 9.15547 2.40656L6.54468 8.38478H1.73003C1.19654 8.38478 0.701273 8.62233 0.371146 9.03654C0.0470734 9.44318 -0.0725067 9.96593 0.0430695 10.4709L2.61421 21.7014C2.79375 22.4856 3.48745 23.0332 4.30117 23.0332H20.6988C21.5126 23.0332 22.2063 22.4856 22.3858 21.7014L24.9569 10.4709C25.0725 9.96588 24.9529 9.44313 24.6289 9.03649ZM20.6988 21.5683H4.30117C4.17681 21.5683 4.06787 21.4868 4.04214 21.3744L1.471 10.144C1.45083 10.0559 1.48467 9.98957 1.5167 9.94948C1.54639 9.91217 1.61363 9.84962 1.73003 9.84962H5.90498L5.71314 10.2889C5.55127 10.6596 5.72051 11.0914 6.09121 11.2533C6.18662 11.295 6.28604 11.3147 6.38394 11.3147C6.66626 11.3147 6.93531 11.1505 7.05552 10.8753L7.50342 9.84972H17.4967L17.9446 10.8753C18.0648 11.1506 18.3338 11.3147 18.6162 11.3147C18.714 11.3147 18.8135 11.295 18.9089 11.2533C19.2796 11.0914 19.4489 10.6596 19.287 10.2889L19.0951 9.84962H23.2701C23.3865 9.84962 23.4537 9.91217 23.4834 9.94948C23.5154 9.98961 23.5493 10.0559 23.5291 10.144L20.958 21.3744C20.9322 21.4868 20.8232 21.5683 20.6988 21.5683Z" fill="white"/>
<path d="M8.10547 13.0232C7.70098 13.0232 7.37305 13.3511 7.37305 13.7556V19.1267C7.37305 19.5312 7.70098 19.8591 8.10547 19.8591C8.50996 19.8591 8.83789 19.5312 8.83789 19.1267V13.7556C8.83789 13.3511 8.51001 13.0232 8.10547 13.0232Z" fill="white"/>
<path d="M12.5 13.0232C12.0955 13.0232 11.7676 13.3511 11.7676 13.7556V19.1267C11.7676 19.5312 12.0955 19.8591 12.5 19.8591C12.9045 19.8591 13.2324 19.5312 13.2324 19.1267V13.7556C13.2324 13.3511 12.9045 13.0232 12.5 13.0232Z" fill="white"/>
<path d="M16.8945 13.0232C16.49 13.0232 16.1621 13.3511 16.1621 13.7556V19.1267C16.1621 19.5312 16.49 19.8591 16.8945 19.8591C17.299 19.8591 17.627 19.5312 17.627 19.1267V13.7556C17.6269 13.3511 17.299 13.0232 16.8945 13.0232Z" fill="white"/>
</g>
<defs>
<clipPath id="clip0">
<rect width="25" height="25" fill="white"/>
</clipPath>
</defs>
</svg>
