<svg width="115" height="115" viewBox="0 0 115 115" fill="none" xmlns="http://www.w3.org/2000/svg">
<path d="M58.8369 7.99993C57.9788 7.65605 57.0212 7.65605 56.1631 7.99993L13.2681 25.1565L30.5469 32.0637L74.7788 14.3752L58.8369 7.99993ZM84.4531 18.2493L40.2213 35.9377L57.5 42.8449L101.732 25.1565L84.4531 18.2493ZM107.812 30.4681L61.0938 49.1556V106.095L107.812 87.4074V30.4752V30.4681ZM53.9062 106.102V49.1484L7.1875 30.4681V87.4146L53.9062 106.102ZM53.4966 1.32274C56.0666 0.294925 58.9334 0.294925 61.5034 1.32274L112.743 21.8215C113.409 22.0885 113.98 22.5488 114.383 23.1432C114.785 23.7376 115 24.4388 115 25.1565V87.4146C114.999 88.8508 114.568 90.2539 113.762 91.4427C112.956 92.6316 111.813 93.5518 110.479 94.0846L58.8369 114.741C57.9788 115.085 57.0212 115.085 56.1631 114.741L4.52812 94.0846C3.19306 93.5529 2.04802 92.6332 1.24086 91.4442C0.433706 90.2553 0.00148299 88.8517 0 87.4146L0 25.1565C0.000167037 24.4388 0.215221 23.7376 0.617457 23.1432C1.01969 22.5488 1.59068 22.0885 2.25688 21.8215L53.4966 1.32274Z" fill="#585858"/>
</svg>
