<svg width="85" height="61" viewBox="0 0 85 61" fill="none" xmlns="http://www.w3.org/2000/svg">
<path d="M48.4375 24.5625C48.4375 27.7119 47.1864 30.7324 44.9594 32.9594C42.7324 35.1864 39.7119 36.4375 36.5625 36.4375C33.4131 36.4375 30.3926 35.1864 28.1656 32.9594C25.9386 30.7324 24.6875 27.7119 24.6875 24.5625C24.6875 21.4131 25.9386 18.3926 28.1656 16.1656C30.3926 13.9386 33.4131 12.6875 36.5625 12.6875C39.7119 12.6875 42.7324 13.9386 44.9594 16.1656C47.1864 18.3926 48.4375 21.4131 48.4375 24.5625ZM42.5 24.5625C42.5 22.9878 41.8744 21.4776 40.7609 20.3641C39.6474 19.2506 38.1372 18.625 36.5625 18.625C34.9878 18.625 33.4776 19.2506 32.3641 20.3641C31.2506 21.4776 30.625 22.9878 30.625 24.5625C30.625 26.1372 31.2506 27.6474 32.3641 28.7609C33.4776 29.8744 34.9878 30.5 36.5625 30.5C38.1372 30.5 39.6474 29.8744 40.7609 28.7609C41.8744 27.6474 42.5 26.1372 42.5 24.5625Z" fill="#585858"/>
<path d="M0.9375 8.23438C0.9375 4.1375 4.2625 0.8125 8.35938 0.8125H64.7656C68.8625 0.8125 72.1875 4.1375 72.1875 8.23438V40.8906C72.1875 44.9875 68.8625 48.3125 64.7656 48.3125H8.35938C4.2625 48.3125 0.9375 44.9875 0.9375 40.8906V8.23438ZM8.35938 6.75C7.96569 6.75 7.58814 6.90639 7.30976 7.18476C7.03139 7.46314 6.875 7.84069 6.875 8.23438V12.6875H9.84375C10.6311 12.6875 11.3862 12.3747 11.943 11.818C12.4997 11.2612 12.8125 10.5061 12.8125 9.71875V6.75H8.35938ZM6.875 40.8906C6.875 41.71 7.54 42.375 8.35938 42.375H12.8125V39.4062C12.8125 38.6189 12.4997 37.8638 11.943 37.307C11.3862 36.7503 10.6311 36.4375 9.84375 36.4375H6.875V40.8906ZM18.75 39.4062V42.375H54.375V39.4062C54.375 37.0442 55.3133 34.7788 56.9836 33.1086C58.6538 31.4383 60.9192 30.5 63.2812 30.5H66.25V18.625H63.2812C60.9192 18.625 58.6538 17.6867 56.9836 16.0164C55.3133 14.3462 54.375 12.0808 54.375 9.71875V6.75H18.75V9.71875C18.75 12.0808 17.8117 14.3462 16.1414 16.0164C14.4712 17.6867 12.2058 18.625 9.84375 18.625H6.875V30.5H9.84375C12.2058 30.5 14.4712 31.4383 16.1414 33.1086C17.8117 34.7788 18.75 37.0442 18.75 39.4062ZM60.3125 42.375H64.7656C65.1593 42.375 65.5369 42.2186 65.8152 41.9402C66.0936 41.6619 66.25 41.2843 66.25 40.8906V36.4375H63.2812C62.4939 36.4375 61.7388 36.7503 61.182 37.307C60.6253 37.8638 60.3125 38.6189 60.3125 39.4062V42.375ZM66.25 12.6875V8.23438C66.25 7.84069 66.0936 7.46314 65.8152 7.18476C65.5369 6.90639 65.1593 6.75 64.7656 6.75H60.3125V9.71875C60.3125 10.5061 60.6253 11.2612 61.182 11.818C61.7388 12.3747 62.4939 12.6875 63.2812 12.6875H66.25Z" fill="#585858"/>
<path d="M21.7199 60.1876C19.839 60.1883 18.0062 59.5936 16.4841 58.4886C14.962 57.3835 13.8289 55.825 13.2471 54.0364C14.0724 54.1789 14.9155 54.2501 15.7824 54.2501H64.7668C68.3099 54.2501 71.7079 52.8426 74.2133 50.3373C76.7186 47.8319 78.1261 44.4339 78.1261 40.8908V13.1923C79.8633 13.8065 81.3672 14.9444 82.4307 16.4491C83.4941 17.9538 84.0646 19.7513 84.0636 21.5939V40.8908C84.0636 43.4249 83.5645 45.9341 82.5947 48.2754C81.625 50.6166 80.2036 52.7438 78.4117 54.5357C76.6198 56.3276 74.4926 57.749 72.1514 58.7187C69.8102 59.6885 67.3009 60.1876 64.7668 60.1876H21.7199Z" fill="#585858"/>
</svg>
