<svg width="95" height="69" viewBox="0 0 95 69" fill="none" xmlns="http://www.w3.org/2000/svg">
<path d="M83.125 5.9704C84.6997 5.9704 86.2099 6.56638 87.3234 7.62724C88.4369 8.68809 89.0625 10.1269 89.0625 11.6272V56.8816C89.0625 58.3819 88.4369 59.8207 87.3234 60.8816C86.2099 61.9424 84.6997 62.5384 83.125 62.5384H11.875C10.3003 62.5384 8.79005 61.9424 7.67655 60.8816C6.56306 59.8207 5.9375 58.3819 5.9375 56.8816V11.6272C5.9375 10.1269 6.56306 8.68809 7.67655 7.62724C8.79005 6.56638 10.3003 5.9704 11.875 5.9704H83.125ZM11.875 0.313599C8.72555 0.313599 5.7051 1.50556 3.47811 3.62727C1.25111 5.74899 0 8.62664 0 11.6272L0 56.8816C0 59.8821 1.25111 62.7598 3.47811 64.8815C5.7051 67.0032 8.72555 68.1952 11.875 68.1952H83.125C86.2744 68.1952 89.2949 67.0032 91.5219 64.8815C93.7489 62.7598 95 59.8821 95 56.8816V11.6272C95 8.62664 93.7489 5.74899 91.5219 3.62727C89.2949 1.50556 86.2744 0.313599 83.125 0.313599H11.875Z" fill="#585858"/>
<path d="M11.875 20.1124C11.875 19.3623 12.1878 18.6428 12.7445 18.1124C13.3013 17.582 14.0564 17.284 14.8438 17.284H26.7188C27.5061 17.284 28.2612 17.582 28.818 18.1124C29.3747 18.6428 29.6875 19.3623 29.6875 20.1124V25.7692C29.6875 26.5193 29.3747 27.2387 28.818 27.7692C28.2612 28.2996 27.5061 28.5976 26.7188 28.5976H14.8438C14.0564 28.5976 13.3013 28.2996 12.7445 27.7692C12.1878 27.2387 11.875 26.5193 11.875 25.7692V20.1124ZM11.875 37.0828C11.875 36.3327 12.1878 35.6132 12.7445 35.0828C13.3013 34.5524 14.0564 34.2544 14.8438 34.2544H44.5312C45.3186 34.2544 46.0737 34.5524 46.6305 35.0828C47.1872 35.6132 47.5 36.3327 47.5 37.0828C47.5 37.8329 47.1872 38.5523 46.6305 39.0828C46.0737 39.6132 45.3186 39.9112 44.5312 39.9112H14.8438C14.0564 39.9112 13.3013 39.6132 12.7445 39.0828C12.1878 38.5523 11.875 37.8329 11.875 37.0828ZM11.875 48.3964C11.875 47.6463 12.1878 46.9268 12.7445 46.3964C13.3013 45.866 14.0564 45.568 14.8438 45.568H20.7812C21.5686 45.568 22.3237 45.866 22.8805 46.3964C23.4372 46.9268 23.75 47.6463 23.75 48.3964C23.75 49.1465 23.4372 49.8659 22.8805 50.3964C22.3237 50.9268 21.5686 51.2248 20.7812 51.2248H14.8438C14.0564 51.2248 13.3013 50.9268 12.7445 50.3964C12.1878 49.8659 11.875 49.1465 11.875 48.3964ZM29.6875 48.3964C29.6875 47.6463 30.0003 46.9268 30.557 46.3964C31.1138 45.866 31.8689 45.568 32.6562 45.568H38.5938C39.3811 45.568 40.1362 45.866 40.693 46.3964C41.2497 46.9268 41.5625 47.6463 41.5625 48.3964C41.5625 49.1465 41.2497 49.8659 40.693 50.3964C40.1362 50.9268 39.3811 51.2248 38.5938 51.2248H32.6562C31.8689 51.2248 31.1138 50.9268 30.557 50.3964C30.0003 49.8659 29.6875 49.1465 29.6875 48.3964ZM47.5 48.3964C47.5 47.6463 47.8128 46.9268 48.3695 46.3964C48.9263 45.866 49.6814 45.568 50.4688 45.568H56.4062C57.1936 45.568 57.9487 45.866 58.5055 46.3964C59.0622 46.9268 59.375 47.6463 59.375 48.3964C59.375 49.1465 59.0622 49.8659 58.5055 50.3964C57.9487 50.9268 57.1936 51.2248 56.4062 51.2248H50.4688C49.6814 51.2248 48.9263 50.9268 48.3695 50.3964C47.8128 49.8659 47.5 49.1465 47.5 48.3964ZM65.3125 48.3964C65.3125 47.6463 65.6253 46.9268 66.182 46.3964C66.7388 45.866 67.4939 45.568 68.2812 45.568H74.2188C75.0061 45.568 75.7612 45.866 76.318 46.3964C76.8747 46.9268 77.1875 47.6463 77.1875 48.3964C77.1875 49.1465 76.8747 49.8659 76.318 50.3964C75.7612 50.9268 75.0061 51.2248 74.2188 51.2248H68.2812C67.4939 51.2248 66.7388 50.9268 66.182 50.3964C65.6253 49.8659 65.3125 49.1465 65.3125 48.3964Z" fill="#585858"/>
</svg>
