<svg width="53" height="53" viewBox="0 0 53 53" fill="none" xmlns="http://www.w3.org/2000/svg">
<path d="M47.1109 22.0834H45.6387V13.25C45.6387 12.8596 45.4836 12.4851 45.2075 12.209C44.9314 11.9329 44.5569 11.7778 44.1664 11.7778H8.83311C8.4845 11.7835 8.14519 11.6653 7.87559 11.4442C7.60599 11.2231 7.4236 10.9135 7.36089 10.5706V10.0406C7.4236 9.69762 7.60599 9.38804 7.87559 9.16696C8.14519 8.94589 8.4845 8.82767 8.83311 8.83336H43.5481C43.9386 8.83336 44.313 8.67825 44.5891 8.40216C44.8652 8.12606 45.0203 7.7516 45.0203 7.36114C45.0203 6.97068 44.8652 6.59622 44.5891 6.32012C44.313 6.04402 43.9386 5.88892 43.5481 5.88892H8.83311C7.66174 5.88892 6.53834 6.35424 5.71005 7.18253C4.88177 8.01081 4.41644 9.13421 4.41644 10.3056C4.40611 10.4821 4.40611 10.6591 4.41644 10.8356V41.1192C4.42222 41.9119 4.58408 42.6956 4.89277 43.4258C5.20147 44.1559 5.65095 44.8181 6.21556 45.3745C6.78017 45.9309 7.44885 46.3706 8.18341 46.6686C8.91798 46.9666 9.70404 47.117 10.4967 47.1111H44.1664C44.5569 47.1111 44.9314 46.956 45.2075 46.6799C45.4836 46.4038 45.6387 46.0294 45.6387 45.6389V36.8056H47.1109C47.5013 36.8056 47.8758 36.6505 48.1519 36.3744C48.428 36.0983 48.5831 35.7238 48.5831 35.3334V23.5556C48.5831 23.1651 48.428 22.7907 48.1519 22.5146C47.8758 22.2385 47.5013 22.0834 47.1109 22.0834ZM42.6942 44.1667H10.4967C9.67787 44.1746 8.88902 43.8589 8.30177 43.2881C7.71452 42.7174 7.37637 41.9379 7.36089 41.1192V14.5456C7.83877 14.6841 8.33603 14.7437 8.83311 14.7222H42.6942V22.0834H32.3887C30.4364 22.0834 28.564 22.8589 27.1836 24.2394C25.8031 25.6199 25.0276 27.4922 25.0276 29.4445C25.0276 31.3968 25.8031 33.2691 27.1836 34.6496C28.564 36.03 30.4364 36.8056 32.3887 36.8056H42.6942V44.1667ZM45.6387 33.8611H32.3887C31.2173 33.8611 30.0939 33.3958 29.2656 32.5675C28.4373 31.7392 27.972 30.6158 27.972 29.4445C27.972 28.2731 28.4373 27.1497 29.2656 26.3214C30.0939 25.4931 31.2173 25.0278 32.3887 25.0278H45.6387V33.8611Z" fill="white"/>
<path d="M33.8758 31.6528C35.0954 31.6528 36.0842 30.664 36.0842 29.4444C36.0842 28.2248 35.0954 27.2361 33.8758 27.2361C32.6562 27.2361 31.6675 28.2248 31.6675 29.4444C31.6675 30.664 32.6562 31.6528 33.8758 31.6528Z" fill="white"/>
</svg>
