<svg width="53" height="53" viewBox="0 0 53 53" fill="none" xmlns="http://www.w3.org/2000/svg">
<path d="M47.7 24.7775L37.5417 16.6067V11.0417C37.5958 9.92633 37.2054 8.83506 36.4561 8.00712C35.7068 7.17919 34.6598 6.68215 33.5446 6.625H8.36961C7.26228 6.69337 6.22648 7.19526 5.48659 8.02196C4.7467 8.84865 4.36231 9.93356 4.4167 11.0417V33.125C4.3962 34.0019 4.6373 34.8651 5.10925 35.6045C5.58121 36.3439 6.26264 36.926 7.0667 37.2767C6.66 38.2716 6.50149 39.3506 6.60486 40.4205C6.70823 41.4904 7.07036 42.519 7.66001 43.4177C8.24967 44.3164 9.04913 45.0582 9.98943 45.5789C10.9297 46.0997 11.9826 46.3838 13.0572 46.4069C14.1318 46.4299 15.1959 46.1911 16.1577 45.7111C17.1194 45.2311 17.9499 44.5243 18.5775 43.6517C19.2051 42.7791 19.611 41.7669 19.7601 40.7024C19.9092 39.6379 19.7971 38.5531 19.4334 37.5417H33.4784C33.1152 38.5423 32.9985 39.6158 33.1381 40.6711C33.2778 41.7265 33.6697 42.7326 34.2807 43.6043C34.8917 44.4761 35.7037 45.1878 36.6481 45.6791C37.5925 46.1704 38.6413 46.4269 39.7059 46.4269C40.7704 46.4269 41.8193 46.1704 42.7636 45.6791C43.708 45.1878 44.5201 44.4761 45.131 43.6043C45.742 42.7326 46.1339 41.7265 46.2736 40.6711C46.4133 39.6158 46.2966 38.5423 45.9334 37.5417H46.375C46.9607 37.5417 47.5224 37.309 47.9366 36.8949C48.3507 36.4807 48.5834 35.919 48.5834 35.3333V26.5C48.5766 26.1647 48.4935 25.8353 48.3405 25.5368C48.1874 25.2383 47.9684 24.9787 47.7 24.7775ZM44.1667 27.56V33.125H37.5417V22.26L44.1667 27.56ZM15.4584 39.75C15.4584 40.1868 15.3288 40.6137 15.0862 40.9769C14.8435 41.34 14.4986 41.6231 14.0951 41.7902C13.6916 41.9574 13.2476 42.0011 12.8192 41.9159C12.3908 41.8307 11.9973 41.6204 11.6885 41.3115C11.3797 41.0027 11.1693 40.6092 11.0841 40.1808C10.9989 39.7525 11.0427 39.3084 11.2098 38.9049C11.3769 38.5014 11.66 38.1565 12.0231 37.9138C12.3863 37.6712 12.8133 37.5417 13.25 37.5417C13.8357 37.5417 14.3974 37.7743 14.8116 38.1885C15.2257 38.6026 15.4584 39.1643 15.4584 39.75ZM26.5 33.125H8.83336V11.0417H33.125V33.125H26.5ZM41.9584 39.75C41.9584 40.1868 41.8288 40.6137 41.5862 40.9769C41.3435 41.34 40.9986 41.6231 40.5951 41.7902C40.1916 41.9574 39.7476 42.0011 39.3192 41.9159C38.8908 41.8307 38.4973 41.6204 38.1885 41.3115C37.8797 41.0027 37.6693 40.6092 37.5841 40.1808C37.4989 39.7525 37.5427 39.3084 37.7098 38.9049C37.8769 38.5014 38.16 38.1565 38.5231 37.9138C38.8863 37.6712 39.3133 37.5417 39.75 37.5417C40.3357 37.5417 40.8974 37.7743 41.3116 38.1885C41.7257 38.6026 41.9584 39.1643 41.9584 39.75Z" fill="white"/>
</svg>
