<svg width="115" height="115" viewBox="0 0 115 115" fill="none" xmlns="http://www.w3.org/2000/svg">
<path d="M99.5327 48.6641L92.9777 28.9943C92.0268 26.1312 90.1978 23.6406 87.7505 21.8764C85.3033 20.1121 82.3623 19.164 79.3454 19.1666H35.655C32.6381 19.164 29.6971 20.1121 27.2498 21.8764C24.8026 23.6406 22.9736 26.1312 22.0227 28.9943L15.4677 48.6641C13.7264 49.3948 12.2394 50.6228 11.1928 52.1945C10.1461 53.7661 9.58632 55.6117 9.5835 57.5V81.4583C9.5835 85.0664 11.6104 88.1762 14.562 89.8102C14.4997 90.1264 14.3752 90.4139 14.3752 90.7446V100.625C14.3752 101.896 14.88 103.115 15.7786 104.013C16.6772 104.912 17.896 105.417 19.1668 105.417H23.9585C25.2293 105.417 26.4481 104.912 27.3467 104.013C28.2453 103.115 28.7502 101.896 28.7502 100.625V91.0416H86.2502V100.625C86.2502 101.896 86.755 103.115 87.6536 104.013C88.5522 104.912 89.771 105.417 91.0418 105.417H95.8335C97.1043 105.417 98.3231 104.912 99.2217 104.013C100.12 103.115 100.625 101.896 100.625 100.625V90.7446C100.625 90.4139 100.501 90.1216 100.438 89.8102C101.94 88.9915 103.194 87.7845 104.07 86.3153C104.946 84.8461 105.411 83.1687 105.417 81.4583V57.5C105.417 53.5277 102.983 50.116 99.5327 48.6641ZM19.1668 81.4583V57.5H95.8335L95.8431 81.4583H19.1668ZM35.655 28.75H79.3406C81.4058 28.75 83.2362 30.0629 83.8879 32.0275L89.1875 47.9166H25.8129L31.1077 32.0275C31.4256 31.0729 32.0359 30.2427 32.8521 29.6544C33.6682 29.0662 34.6489 28.7497 35.655 28.75Z" fill="#585858"/>
<path d="M31.146 76.6666C35.1155 76.6666 38.3335 73.4487 38.3335 69.4791C38.3335 65.5096 35.1155 62.2916 31.146 62.2916C27.1765 62.2916 23.9585 65.5096 23.9585 69.4791C23.9585 73.4487 27.1765 76.6666 31.146 76.6666Z" fill="#585858"/>
<path d="M83.854 76.6666C87.8236 76.6666 91.0415 73.4487 91.0415 69.4791C91.0415 65.5096 87.8236 62.2916 83.854 62.2916C79.8845 62.2916 76.6665 65.5096 76.6665 69.4791C76.6665 73.4487 79.8845 76.6666 83.854 76.6666Z" fill="#585858"/>
</svg>
